<?xml version="1.0" encoding="UTF-8" standalone="no"?>
<!DOCTYPE svg PUBLIC "-//W3C//DTD SVG 1.1//EN" "http://www.w3.org/Graphics/SVG/1.1/DTD/svg11.dtd">
<svg width="100%" height="100%" viewBox="0 0 16 16" version="1.1" xmlns="http://www.w3.org/2000/svg" xmlns:xlink="http://www.w3.org/1999/xlink" xml:space="preserve" xmlns:serif="http://www.serif.com/" style="fill-rule:evenodd;clip-rule:evenodd;stroke-linejoin:round;stroke-miterlimit:2;">
    <g transform="matrix(1,0,0,1,0.302375,-0.46308)">
        <g transform="matrix(0.896656,-0.902728,0.851224,0.845498,-4.8005,1.16631)">
            <path d="M3.345,4.466C3.345,4.325 3.237,4.21 3.103,4.21L2.621,4.21C2.487,4.21 2.379,4.325 2.379,4.466L2.379,18.906C2.379,19.047 2.487,19.162 2.621,19.162L3.103,19.162C3.237,19.162 3.345,19.047 3.345,18.906L3.345,4.466Z" style="fill:white;"/>
        </g>
        <g transform="matrix(-0.896656,-0.902728,-0.851224,0.845498,20.1957,1.16631)">
            <path d="M3.345,4.466C3.345,4.325 3.237,4.21 3.103,4.21L2.621,4.21C2.487,4.21 2.379,4.325 2.379,4.466L2.379,18.906C2.379,19.047 2.487,19.162 2.621,19.162L3.103,19.162C3.237,19.162 3.345,19.047 3.345,18.906L3.345,4.466Z" style="fill:white;"/>
        </g>
    </g>
</svg>
