<?xml version="1.0" encoding="UTF-8" standalone="no"?>
<!DOCTYPE svg PUBLIC "-//W3C//DTD SVG 1.1//EN" "http://www.w3.org/Graphics/SVG/1.1/DTD/svg11.dtd">
<svg width="100%" height="100%" viewBox="0 0 15 15" version="1.1" xmlns="http://www.w3.org/2000/svg" xmlns:xlink="http://www.w3.org/1999/xlink" xml:space="preserve" xmlns:serif="http://www.serif.com/" style="fill-rule:evenodd;clip-rule:evenodd;stroke-linejoin:round;stroke-miterlimit:2;">
    <g transform="matrix(1,0,0,1,-0.881443,-0.881443)">
        <g transform="matrix(1.49783,0,0,1.49783,-7.11728,-6.25255)">
            <path d="M10.514,4.782C10.234,4.757 9.952,4.757 9.671,4.782L9.339,6.308C8.992,6.389 8.661,6.527 8.358,6.714L7.044,5.87C6.828,6.051 6.628,6.25 6.447,6.466L7.292,7.78C7.104,8.083 6.967,8.415 6.885,8.762L5.359,9.094C5.334,9.374 5.334,9.657 5.359,9.937L6.885,10.269C6.967,10.616 7.104,10.948 7.292,11.25L6.447,12.565C6.628,12.781 6.828,12.98 7.044,13.161L8.358,12.317C8.661,12.504 8.992,12.642 9.339,12.723L9.671,14.249C9.952,14.274 10.234,14.274 10.514,14.249L10.847,12.723C11.194,12.642 11.525,12.504 11.828,12.317L13.142,13.161C13.358,12.98 13.558,12.781 13.738,12.565L12.894,11.25C13.082,10.948 13.219,10.616 13.3,10.269L14.827,9.937C14.852,9.657 14.852,9.374 14.827,9.094L13.3,8.762C13.219,8.415 13.082,8.083 12.894,7.78L13.738,6.466C13.558,6.25 13.358,6.051 13.142,5.87L11.828,6.714C11.525,6.527 11.194,6.389 10.847,6.308L10.514,4.782ZM10.093,7.137C11.405,7.137 12.471,8.203 12.471,9.515C12.471,10.828 11.405,11.894 10.093,11.894C8.78,11.894 7.715,10.828 7.715,9.515C7.715,8.203 8.78,7.137 10.093,7.137Z" style="fill:rgb(171,178,191);"/>
        </g>
    </g>
</svg>
